<?xml version="1.0" encoding="UTF-8"?>
<!DOCTYPE svg PUBLIC "-//W3C//DTD SVG 1.1//EN" "http://www.w3.org/Graphics/SVG/1.1/DTD/svg11.dtd">
<!-- Creator: CorelDRAW 2018 (64 Bit Versión de evaluación) -->
<svg xmlns="http://www.w3.org/2000/svg" xml:space="preserve" width="0.208587in" height="0.208591in" version="1.1" style="shape-rendering:geometricPrecision; text-rendering:geometricPrecision; image-rendering:optimizeQuality; fill-rule:evenodd; clip-rule:evenodd"
viewBox="0 0 1.55 1.55"
 xmlns:xlink="http://www.w3.org/1999/xlink">
 <defs>
  <style type="text/css">
   <![CDATA[
    .fil5 {fill:#FEFEFE;fill-rule:nonzero}
    .fil0 {fill:#F8B556;fill-rule:nonzero}
    .fil2 {fill:#F3F4F4;fill-rule:nonzero}
    .fil4 {fill:#A85D38;fill-rule:nonzero}
    .fil7 {fill:#8B4B33;fill-rule:nonzero}
    .fil1 {fill:#332F2D;fill-rule:nonzero}
    .fil3 {fill:#4E4E51;fill-rule:nonzero}
    .fil6 {fill:#282828;fill-rule:nonzero}
   ]]>
  </style>
 </defs>
 <g id="Capa_x0020_1">
  <metadata id="CorelCorpID_0Corel-Layer"/>
  <g id="_1697174177264">
   <path class="fil0" d="M1.55 0.77c0,-0.43 -0.35,-0.77 -0.77,-0.77 -0.43,0 -0.77,0.35 -0.77,0.77 0,0.43 0.35,0.77 0.77,0.77 0.43,0 0.77,-0.35 0.77,-0.77z"/>
   <path class="fil1" d="M0.71 1.02c-0.19,0 -0.34,0.16 -0.39,0.38 0.13,0.09 0.29,0.15 0.46,0.15 0.12,0 0.24,-0.03 0.35,-0.08 -0.02,-0.17 -0.1,-0.31 -0.21,-0.38 -0.06,-0.04 -0.13,-0.06 -0.2,-0.06z"/>
   <polygon class="fil2" points="0.52,1.05 0.71,1.55 0.71,1.55 0.92,1.06 "/>
   <path class="fil3" d="M0.53 1.06l0.18 0.48 -0 -0 -0.2 -0.2 0.05 -0.06 -0.12 -0.15 0.1 -0.07zm0.18 0.48l0.19 -0.46 0.12 0.03 -0.11 0.14 0.06 0.03 -0.27 0.26 -0 -0z"/>
   <path class="fil4" d="M0.83 0.47c-0.04,0 -0.14,0 -0.14,0 0,0 -0.09,0 -0.14,0 -0.04,0 -0.14,0.06 -0.14,0.15 0,0.09 0.02,0.22 0.08,0.3 0.07,0.08 -0.02,0.21 0.19,0.21 0.22,0 0.13,-0.13 0.19,-0.21 0.07,-0.08 0.08,-0.21 0.08,-0.3 0,-0.09 -0.1,-0.15 -0.14,-0.15z"/>
   <path class="fil5" d="M0.67 0.5c0,0 -0,0.2 -0.06,0.28 -0.05,0.08 -0.17,0.3 -0.06,0.33 0.1,0.03 0.11,-0.08 0.15,-0.08 0.04,0 0.06,0.09 0.16,0.07 0.09,-0.02 0.03,-0.19 -0.06,-0.32 -0.09,-0.12 -0.07,-0.29 -0.07,-0.29l-0.06 0z"/>
   <path class="fil6" d="M0.94 0.64c-0.01,0 -0.01,-0 -0.01,-0 0,-0 0,-0 0.01,-0 0.01,0 0.01,0 0.01,0 0,0 -0,0 -0.01,0zm-0.02 0.05c-0,0.02 -0,0.04 -0.01,0.05 -0,0.01 -0.01,0.01 -0.01,0.02 -0.01,0.01 -0.01,0.01 -0.02,0.01 -0.01,0 -0.02,0 -0.03,0 -0.02,0 -0.03,-0 -0.05,-0 -0.01,-0 -0.03,-0.01 -0.04,-0.02 -0.01,-0.02 -0.02,-0.03 -0.02,-0.05 -0,-0.01 -0,-0.02 -0,-0.03 0,-0 0,-0.01 0,-0.01 0,-0.01 0.01,-0.02 0.02,-0.02 0.01,-0 0.02,-0.01 0.03,-0.01 0.01,-0 0.02,-0 0.03,-0 0.01,-0 0.02,-0 0.02,-0 0.02,0 0.04,0 0.06,0.01 0,0 0.01,0 0.01,0 0,0 0.01,0 0.01,0.01 0,0 0,0.01 0,0.01 0,0 0,0.01 0,0.01 0,0.01 0,0.01 0,0.02zm-0.27 0.01c-0,0.01 -0.01,0.03 -0.02,0.04 -0,0.01 -0.01,0.01 -0.02,0.02 -0.01,0.01 -0.02,0.01 -0.03,0.01 -0.02,0.01 -0.04,0.01 -0.07,0 -0,-0 -0.01,-0 -0.01,-0 -0.01,-0 -0.02,-0.01 -0.02,-0.01 -0.01,-0.01 -0.01,-0.02 -0.01,-0.03 -0,-0.01 -0,-0.03 -0.01,-0.04 -0,-0.01 -0,-0.01 0,-0.02 0,-0 0,-0.01 0,-0.01 0,-0.01 0.01,-0.02 0.02,-0.02 0.01,-0 0.02,-0 0.04,-0.01 0.01,-0 0.02,-0 0.02,-0 0.02,0 0.04,0 0.06,0.01 0.01,0 0.01,0 0.02,0.01 0,0 0.01,0 0.01,0.01 0,0 0.01,0.01 0.01,0.01 0,0.01 0,0.02 -0,0.04zm-0.19 -0.05c-0.01,0 -0.01,-0 -0.01,-0 0,-0 0,-0 0.01,-0 0.01,0 0.01,0 0.01,0 0,0 -0,0 -0.01,0zm0.5 -0.02c-0,-0 -0,-0 -0,-0 -0,-0 -0,-0 -0,-0 -0.02,-0 -0.03,-0.01 -0.05,-0.01 -0.01,-0 -0.03,-0 -0.04,-0 -0.03,-0 -0.05,-0 -0.08,0 -0.02,0 -0.03,0 -0.05,0.01 -0.01,0 -0.01,0.01 -0.02,0.01 -0.01,0 -0.02,0.01 -0.04,0 -0.01,-0 -0.01,-0 -0.02,-0.01 -0.01,-0 -0.03,-0.01 -0.04,-0.01 -0.03,-0 -0.05,-0.01 -0.08,-0.01 -0.02,0 -0.04,0 -0.06,0 -0.01,0 -0.03,0 -0.04,0.01 -0,0 -0.01,0 -0.01,0 -0,0 -0,0 -0,0 -0,0.01 -0,0.02 -0,0.03 -0,0 0,0 0,0 0,0 0,0 0,0 0,0 0,0 0,0 0,0 0.01,0.01 0.01,0.01 0,0 0,0.01 0,0.01 0,0 0,0 0,0.01 0,0.01 0,0.02 0.01,0.03 0,0.01 0.01,0.02 0.01,0.03 0.01,0.01 0.01,0.02 0.03,0.02 0.01,0 0.01,0 0.02,0.01 0.01,0 0.03,0 0.04,0 0.01,-0 0.03,-0 0.04,-0.01 0.01,-0 0.02,-0.01 0.03,-0.01 0.01,-0.01 0.02,-0.02 0.03,-0.04 0.01,-0.01 0.01,-0.03 0.02,-0.04 0,-0 0,-0.01 0,-0.01 0,-0.01 0.01,-0.01 0.01,-0.01 0,-0 0,-0 0.01,-0 0,0 0.01,0 0.01,0.01 0,0 0,0 0,0.01 0,0 0,0.01 0,0.01 0.01,0.02 0.01,0.04 0.02,0.05 0.01,0.01 0.02,0.02 0.03,0.03 0.01,0.01 0.02,0.01 0.03,0.01 0.02,0 0.03,0 0.05,0 0.01,-0 0.02,-0 0.03,-0 0.01,-0 0.02,-0.01 0.03,-0.02 0,-0.01 0.01,-0.01 0.01,-0.02 0.01,-0.01 0.01,-0.03 0.01,-0.04 0,-0.01 0,-0.01 0,-0.02 0,-0 0,-0.01 0,-0.01 0,-0 0,-0.01 0,-0.01 0,-0 0,-0.01 0.01,-0.01 0,-0 0,-0 0,-0 0,-0 0,-0 0,-0 0,-0.01 0,-0.01 -0,-0.02 -0,-0 -0,-0.01 -0,-0.01z"/>
   <path class="fil5" d="M0.9 0.66c0,0 -0.1,-0.03 -0.09,0.07 0,0 0.09,0.03 0.09,-0.07z"/>
   <path class="fil1" d="M0.82 0.69c0,0.01 0.01,0.02 0.02,0.02 0.01,0 0.02,-0.01 0.02,-0.02 0,-0.01 -0.01,-0.02 -0.02,-0.02 -0.01,0 -0.02,0.01 -0.02,0.02z"/>
   <path class="fil5" d="M0.83 0.69c0,0 0,0.01 0.01,0.01 0,0 0.01,-0 0.01,-0.01 0,-0 -0,-0.01 -0.01,-0.01 -0,0 -0.01,0 -0.01,0.01z"/>
   <path class="fil5" d="M0.52 0.66c0,0 0.1,-0.03 0.09,0.07 0,0 -0.09,0.03 -0.09,-0.07z"/>
   <path class="fil1" d="M0.6 0.69c0,0.01 -0.01,0.02 -0.02,0.02 -0.01,0 -0.02,-0.01 -0.02,-0.02 0,-0.01 0.01,-0.02 0.02,-0.02 0.01,0 0.02,0.01 0.02,0.02z"/>
   <path class="fil5" d="M0.59 0.69c0,0 -0,0.01 -0.01,0.01 -0,0 -0.01,-0 -0.01,-0.01 0,-0 0,-0.01 0.01,-0.01 0,0 0.01,0 0.01,0.01z"/>
   <path class="fil7" d="M0.53 0.48c0,0 -0.26,0.08 -0.24,0.29 0.01,0.21 0.06,0.32 0.13,0.32 0.07,0 0.1,-0.06 0.09,-0.25 -0.02,-0.19 0.02,-0.36 0.02,-0.36z"/>
   <path class="fil7" d="M0.87 0.48c0,0 0.26,0.08 0.24,0.29 -0.01,0.21 -0.06,0.32 -0.13,0.32 -0.07,0 -0.08,-0.06 -0.06,-0.25 0.02,-0.19 -0.05,-0.35 -0.05,-0.35z"/>
   <path class="fil1" d="M0.74 0.95c0.03,0 0.04,0.02 0.02,0.05l-0.01 0.02c-0.02,0.02 -0.05,0.02 -0.07,0l-0.01 -0.02c-0.02,-0.02 -0.01,-0.05 0.02,-0.05l0.05 0z"/>
   <path class="fil1" d="M0.71 1.04c0,0 -0.05,-0.01 -0.06,0.03 -0.01,0.03 -0.05,0.07 -0.07,0.06 -0.03,-0.02 -0.02,-0.06 0.01,-0.07 -0.02,-0.02 -0.08,0.03 -0.03,0.07 0.05,0.04 0.14,-0 0.16,-0.05 0,-0.03 0,-0.04 0,-0.04z"/>
   <path class="fil1" d="M0.71 1.04c0,0 0.05,-0.01 0.06,0.03 0.01,0.03 0.05,0.07 0.07,0.06 0.03,-0.02 0.02,-0.06 -0.01,-0.07 0.02,-0.02 0.08,0.03 0.03,0.07 -0.05,0.04 -0.14,-0 -0.16,-0.05 0,-0.03 0,-0.04 0,-0.04z"/>
   <path class="fil6" d="M0.98 0.42c-0.01,-0.12 -0.13,-0.05 -0.13,-0.05 0,0 0,-0.02 0,-0.11 0,-0.12 -0.13,-0.05 -0.14,-0.05 -0.01,0 -0.14,-0.07 -0.14,0.05 0,0.09 0,0.11 0,0.11 0,0 -0.12,-0.07 -0.13,0.05 -0.01,0.12 0.11,0.12 0.11,0.12l0.33 0c0,0 0.12,-0 0.11,-0.12z"/>
   <path class="fil5" d="M0.86 0.37c0,0 -0.01,0.04 -0.14,0.04 -0.13,0 -0.14,-0.04 -0.14,-0.04 0,0 -0.03,0.03 -0.01,0.06 0.02,0.04 0.09,0.05 0.15,0.05 0.07,0 0.13,-0.01 0.15,-0.05 0.02,-0.03 -0.01,-0.06 -0.01,-0.06z"/>
  </g>
 </g>
</svg>
