<?xml version="1.0" encoding="UTF-8"?>
<!DOCTYPE svg PUBLIC "-//W3C//DTD SVG 1.1//EN" "http://www.w3.org/Graphics/SVG/1.1/DTD/svg11.dtd">
<!-- Creator: CorelDRAW 2018 (64 Bit Versión de evaluación) -->
<svg xmlns="http://www.w3.org/2000/svg" xml:space="preserve" width="0.208587in" height="0.208587in" version="1.1" style="shape-rendering:geometricPrecision; text-rendering:geometricPrecision; image-rendering:optimizeQuality; fill-rule:evenodd; clip-rule:evenodd"
viewBox="0 0 1.55 1.55"
 xmlns:xlink="http://www.w3.org/1999/xlink">
 <defs>
  <style type="text/css">
   <![CDATA[
    .fil5 {fill:#FEFEFE;fill-rule:nonzero}
    .fil1 {fill:#EB5B37;fill-rule:nonzero}
    .fil2 {fill:#9A3A34;fill-rule:nonzero}
    .fil0 {fill:#6F85A5;fill-rule:nonzero}
    .fil4 {fill:#332F2D;fill-rule:nonzero}
    .fil3 {fill:#282828;fill-rule:nonzero}
   ]]>
  </style>
 </defs>
 <g id="Capa_x0020_1">
  <metadata id="CorelCorpID_0Corel-Layer"/>
  <g id="_1697173111824">
   <path class="fil0" d="M1.55 0.77c0,-0.43 -0.35,-0.77 -0.77,-0.77 -0.43,0 -0.77,0.35 -0.77,0.77 0,0.43 0.35,0.77 0.77,0.77 0.43,0 0.77,-0.35 0.77,-0.77z"/>
   <path class="fil1" d="M0.89 0.52c0.04,-0.1 0.19,-0.14 0.19,-0.14 0,0 0.07,0.19 -0.01,0.28l-0.19 -0.14z"/>
   <path class="fil2" d="M1.05 0.44c0,0 -0.08,0.02 -0.11,0.08 -0.04,0.07 0.12,0.09 0.12,0.09 0,0 0.04,-0.1 -0.01,-0.18z"/>
   <path class="fil1" d="M0.63 0.53c-0.04,-0.1 -0.2,-0.13 -0.2,-0.13 0,0 -0.06,0.2 0.02,0.28l0.18 -0.15z"/>
   <path class="fil2" d="M0.47 0.46c0,0 0.08,0.01 0.12,0.08 0.04,0.06 -0.11,0.1 -0.11,0.1 0,0 -0.04,-0.1 -0,-0.18z"/>
   <path class="fil1" d="M0.77 1.09c-0.2,0 -0.36,0.14 -0.41,0.34 0.12,0.08 0.27,0.12 0.42,0.12 0.15,0 0.29,-0.04 0.41,-0.12 -0.05,-0.2 -0.22,-0.34 -0.42,-0.34z"/>
   <path class="fil1" d="M0.41 0.8c0,0.2 0.16,0.37 0.37,0.37 0.2,0 0.37,-0.16 0.37,-0.37 0,-0.2 -0.16,-0.3 -0.36,-0.3 -0.2,0 -0.38,0.1 -0.38,0.3z"/>
   <path class="fil3" d="M0.92 1.17c-0.02,-0.01 -0.11,0.05 -0.11,0.05 -0.01,-0.01 -0.01,-0.01 -0.02,-0.01 -0.01,0 -0.02,0 -0.02,0.01 0,0 -0.09,-0.06 -0.11,-0.05 -0.02,0.01 -0.02,0.12 0,0.13 0.02,0.01 0.11,-0.04 0.11,-0.04 0.01,0.01 0.01,0.01 0.02,0.01 0.01,0 0.02,-0 0.02,-0.01 0,0 0.1,0.06 0.11,0.04 0.02,-0.01 0.02,-0.13 0,-0.13z"/>
   <path class="fil4" d="M0.8 1.34c0,-0.01 -0.01,-0.02 -0.02,-0.02 -0.01,0 -0.02,0.01 -0.02,0.02 0,0.01 0.01,0.02 0.02,0.02 0.01,0 0.02,-0.01 0.02,-0.02z"/>
   <path class="fil5" d="M0.59 0.71c0,0 0.11,-0.03 0.11,0.08 0,0 -0.11,0.04 -0.11,-0.08z"/>
   <path class="fil4" d="M0.68 0.75c0,0.02 -0.01,0.03 -0.03,0.03 -0.02,0 -0.03,-0.01 -0.03,-0.03 0,-0.02 0.01,-0.03 0.03,-0.03 0.02,0 0.03,0.01 0.03,0.03z"/>
   <path class="fil5" d="M0.67 0.74c0,0 -0,0.01 -0.01,0.01 -0,0 -0.01,-0 -0.01,-0.01 0,-0 0,-0.01 0.01,-0.01 0,0 0.01,0 0.01,0.01z"/>
   <path class="fil5" d="M0.98 0.71c0,0 -0.11,-0.03 -0.11,0.08 0,0 0.11,0.04 0.11,-0.08z"/>
   <path class="fil4" d="M0.89 0.75c0,0.02 0.01,0.03 0.03,0.03 0.02,0 0.03,-0.01 0.03,-0.03 0,-0.02 -0.01,-0.03 -0.03,-0.03 -0.02,0 -0.03,0.01 -0.03,0.03z"/>
   <path class="fil5" d="M0.9 0.74c0,0 0,0.01 0.01,0.01 0,0 0.01,-0 0.01,-0.01 0,-0 -0,-0.01 -0.01,-0.01 -0,0 -0.01,0 -0.01,0.01z"/>
   <path class="fil4" d="M0.93 0.93c-0,0 -0,-0 -0,-0 -0,-0 0,-0 0,-0.01 0.01,-0 0.19,-0.08 0.26,-0.06 0,0 0,0 0,0.01 -0,0 -0,0 -0.01,0 -0.07,-0.03 -0.25,0.06 -0.25,0.06l-0 0z"/>
   <path class="fil4" d="M0.97 0.97c-0,0 -0,-0 -0,-0 -0,-0 0,-0 0,-0 0.02,-0 0.22,-0.02 0.24,-0.01 0,0 0,0 0,0.01 -0,0 -0,0 -0.01,0 -0.01,-0.01 -0.15,0 -0.23,0.01l-0 0z"/>
   <path class="fil4" d="M1.15 1.05c-0,0 -0,-0 -0,-0 -0.02,-0.02 -0.12,-0.03 -0.15,-0.03 -0,-0 -0,-0 -0,-0 0,-0 0,-0 0,-0 0.01,0 0.13,0.01 0.16,0.04 0,0 0,0 -0,0.01 -0,0 -0,0 -0,0z"/>
   <path class="fil4" d="M0.63 0.93c0,0 0,-0 0,-0 0,-0 0,-0 -0,-0.01 -0.01,-0 -0.19,-0.08 -0.26,-0.06 -0,0 -0,0 -0,0.01 0,0 0,0 0.01,0 0.07,-0.03 0.25,0.06 0.25,0.06l0 0z"/>
   <path class="fil4" d="M0.59 0.97c0,0 0,-0 0,-0 0,-0 -0,-0 -0,-0 -0.02,-0 -0.22,-0.02 -0.24,-0.01 -0,0 -0,0 -0,0.01 0,0 0,0 0.01,0 0.01,-0.01 0.15,0 0.23,0.01l0 0z"/>
   <path class="fil4" d="M0.4 1.05c0,0 0,-0 0,-0 0.02,-0.02 0.12,-0.03 0.15,-0.03 0,-0 0,-0 0,-0 -0,-0 -0,-0 -0,-0 -0.01,0 -0.13,0.01 -0.16,0.04 -0,0 -0,0 0,0.01 0,0 0,0 0,0z"/>
   <path class="fil5" d="M0.89 0.9c-0.05,0 -0.09,0.03 -0.11,0.06 -0.02,-0.03 -0.06,-0.05 -0.1,-0.05 -0.06,0 -0.12,0.04 -0.12,0.1 0,0.05 0.05,0.1 0.12,0.1 0.05,0 0.09,-0.03 0.11,-0.06 0.02,0.03 0.06,0.05 0.1,0.05 0.06,0 0.12,-0.04 0.12,-0.1 0,-0.05 -0.05,-0.1 -0.12,-0.1z"/>
   <path class="fil4" d="M0.81 0.87c0.03,0 0.04,0.02 0.02,0.05l-0.01 0.02c-0.02,0.03 -0.05,0.03 -0.07,0l-0.01 -0.02c-0.02,-0.03 -0.01,-0.05 0.02,-0.05l0.05 0z"/>
   <path class="fil4" d="M1.07 0.71c0,0 -0.02,0.01 -0.02,0.01 -0,0 -0.01,-0 -0.01,-0.01 0,-0 0.01,-0.01 0.01,-0.01 0,0 0.02,0.01 0.02,0.01l0 0zm-0.05 0.06c-0,0.02 -0.02,0.04 -0.03,0.05 -0.02,0.02 -0.05,0.02 -0.07,0.02 -0.06,-0 -0.07,-0.02 -0.08,-0.04 -0.02,-0.03 -0.02,-0.06 -0.01,-0.08 0,-0.02 0.02,-0.04 0.03,-0.04 0.01,-0.01 0.04,-0.01 0.04,-0.01 0.03,-0 0.07,0 0.09,0 0.02,0 0.02,0.01 0.03,0.02 0.01,0.01 0.01,0.02 0.01,0.02 0,0.01 0,0.04 -0,0.06zm-0.31 0.03c-0.01,0.02 -0.03,0.04 -0.08,0.04 -0.02,0 -0.05,-0 -0.07,-0.02 -0.01,-0.01 -0.02,-0.03 -0.03,-0.05 -0,-0.02 -0.01,-0.05 -0,-0.06 0,0 0,-0.02 0.01,-0.02 0.01,-0.01 0.01,-0.01 0.03,-0.02 0.02,-0 0.06,-0.01 0.09,-0 0,0 0.03,0 0.04,0.01 0.01,0.01 0.03,0.02 0.03,0.04 0,0.02 0,0.05 -0.01,0.08zm-0.21 -0.08c-0,0 -0.02,-0.01 -0.02,-0.01l0 -0c0,0 0.02,-0.01 0.02,-0.01 0,0 0.01,0 0.01,0.01 0,0 -0,0.01 -0.01,0.01zm0.59 -0.02c-0,-0 -0.01,-0.01 -0.01,-0.01 0,0 -0.02,-0 -0.03,-0.01 -0.02,-0.01 -0.05,-0.02 -0.07,-0.02 -0.02,-0 -0.06,-0 -0.08,-0 -0.02,0 -0.04,0.01 -0.05,0.01 -0.01,0 -0.01,0.01 -0.02,0.01 -0,0 -0.01,0.01 -0.01,0 -0,-0 -0.01,-0 -0.01,-0 0,0 -0.02,0 -0.03,0 -0.01,-0 -0.03,-0 -0.03,-0 0,0 -0.01,0 -0.01,0 -0,0 -0.01,-0 -0.01,-0 -0,-0 -0.01,-0.01 -0.02,-0.01 -0.01,-0 -0.03,-0.01 -0.05,-0.01 -0.02,-0 -0.06,-0 -0.08,0 -0.02,0 -0.05,0.02 -0.07,0.02 -0.02,0.01 -0.03,0.01 -0.03,0.01 0,0 -0.01,0 -0.01,0.01 -0,0 0,0.03 0,0.03 0,0 0.01,0 0.02,0.01 0.01,0 0.01,0.01 0.02,0.02 0.01,0.01 0.02,0.06 0.03,0.07 0.01,0.02 0.03,0.02 0.06,0.03 0.06,0 0.08,-0.01 0.09,-0.02 0.02,-0.01 0.03,-0.03 0.04,-0.04 0.01,-0.01 0.02,-0.06 0.02,-0.06 0,-0 -0,-0.01 -0,-0.01 -0,-0 -0,-0.01 -0,-0.01 0,-0 0,-0.01 0.01,-0.01 0.01,-0 0.01,-0 0.02,-0 0.01,0 0.01,0 0.02,0 0.01,0 0.01,0.01 0.01,0.01 0,0 -0,0.01 -0,0.01 -0,0 -0,0.01 -0,0.01 0,0 0.01,0.05 0.02,0.06 0.01,0.01 0.02,0.03 0.04,0.04 0.02,0.01 0.04,0.02 0.09,0.02 0.03,-0.01 0.05,-0.02 0.06,-0.03 0.01,-0.02 0.03,-0.06 0.03,-0.07 0.01,-0.01 0.01,-0.02 0.02,-0.02 0.01,-0 0.02,-0.01 0.02,-0.01 0,0 0,-0.03 0,-0.03z"/>
  </g>
 </g>
</svg>
