<?xml version="1.0" encoding="UTF-8"?>
<!DOCTYPE svg PUBLIC "-//W3C//DTD SVG 1.1//EN" "http://www.w3.org/Graphics/SVG/1.1/DTD/svg11.dtd">
<!-- Creator: CorelDRAW 2018 (64 Bit Versión de evaluación) -->
<svg xmlns="http://www.w3.org/2000/svg" xml:space="preserve" width="0.208587in" height="0.208587in" version="1.1" style="shape-rendering:geometricPrecision; text-rendering:geometricPrecision; image-rendering:optimizeQuality; fill-rule:evenodd; clip-rule:evenodd"
viewBox="0 0 1.55 1.55"
 xmlns:xlink="http://www.w3.org/1999/xlink">
 <defs>
  <style type="text/css">
   <![CDATA[
    .fil4 {fill:#FEFEFE;fill-rule:nonzero}
    .fil2 {fill:#F3C89B;fill-rule:nonzero}
    .fil1 {fill:#AB6638;fill-rule:nonzero}
    .fil0 {fill:#68BDC6;fill-rule:nonzero}
    .fil5 {fill:#282828;fill-rule:nonzero}
    .fil3 {fill:#39383D;fill-rule:nonzero}
   ]]>
  </style>
 </defs>
 <g id="Capa_x0020_1">
  <metadata id="CorelCorpID_0Corel-Layer"/>
  <g id="_1697173147152">
   <path class="fil0" d="M1.55 0.77c0,-0.43 -0.35,-0.77 -0.77,-0.77 -0.43,0 -0.77,0.35 -0.77,0.77 0,0.43 0.35,0.77 0.77,0.77 0.43,0 0.77,-0.35 0.77,-0.77z"/>
   <path class="fil1" d="M0.77 1.06c-0.21,0 -0.39,0.15 -0.44,0.35 0.13,0.09 0.28,0.14 0.44,0.14 0.17,0 0.32,-0.05 0.44,-0.14 -0.06,-0.2 -0.23,-0.35 -0.44,-0.35z"/>
   <path class="fil1" d="M1.41 0.64c0,0.09 -0.07,0.16 -0.16,0.16 -0.09,0 -0.16,-0.07 -0.16,-0.16 0,-0.09 0.07,-0.16 0.16,-0.16 0.09,0 0.16,0.07 0.16,0.16z"/>
   <path class="fil2" d="M1.36 0.64c0,0.06 -0.05,0.1 -0.1,0.1 -0.06,0 -0.1,-0.05 -0.1,-0.1 0,-0.06 0.05,-0.1 0.1,-0.1 0.06,0 0.1,0.05 0.1,0.1z"/>
   <path class="fil1" d="M0.45 0.64c0,0.09 -0.07,0.16 -0.16,0.16 -0.09,0 -0.16,-0.07 -0.16,-0.16 0,-0.09 0.07,-0.16 0.16,-0.16 0.09,0 0.16,0.07 0.16,0.16z"/>
   <path class="fil2" d="M0.4 0.64c0,0.06 -0.05,0.1 -0.1,0.1 -0.06,0 -0.1,-0.05 -0.1,-0.1 0,-0.06 0.05,-0.1 0.1,-0.1 0.06,0 0.1,0.05 0.1,0.1z"/>
   <path class="fil1" d="M0.77 0.27c-0.24,0 -0.44,0.2 -0.44,0.44 0,0.24 0.2,0.44 0.44,0.44 0.24,0 0.44,-0.2 0.44,-0.44 0,-0.24 -0.2,-0.44 -0.44,-0.44z"/>
   <path class="fil2" d="M1.16 0.68c0,-0.11 -0.09,-0.2 -0.2,-0.2 -0.09,0 -0.17,0.06 -0.19,0.15 -0.02,-0.09 -0.1,-0.15 -0.19,-0.15 -0.11,0 -0.2,0.09 -0.2,0.2 0,0.11 0.09,0.2 0.2,0.2l0 0.1c0,0.11 0.09,0.2 0.2,0.2 0.11,0 0.2,-0.09 0.2,-0.2l0 -0.1c0.1,-0.01 0.18,-0.09 0.18,-0.2z"/>
   <path class="fil3" d="M0.7 0.7c0,0.02 -0.02,0.04 -0.04,0.04 -0.02,0 -0.04,-0.02 -0.04,-0.04 0,-0.02 0.02,-0.04 0.04,-0.04 0.02,0 0.04,0.02 0.04,0.04z"/>
   <path class="fil3" d="M0.93 0.7c0,0.02 -0.02,0.04 -0.04,0.04 -0.02,0 -0.04,-0.02 -0.04,-0.04 0,-0.02 0.02,-0.04 0.04,-0.04 0.02,0 0.04,0.02 0.04,0.04z"/>
   <path class="fil4" d="M0.69 0.68c0,0.01 -0.01,0.01 -0.01,0.01 -0.01,0 -0.01,-0.01 -0.01,-0.01 0,-0.01 0.01,-0.01 0.01,-0.01 0.01,0 0.01,0.01 0.01,0.01z"/>
   <path class="fil4" d="M0.91 0.68c0,0.01 -0.01,0.01 -0.01,0.01 -0.01,0 -0.01,-0.01 -0.01,-0.01 0,-0.01 0.01,-0.01 0.01,-0.01 0.01,0 0.01,0.01 0.01,0.01z"/>
   <path class="fil1" d="M0.81 0.83c0.04,0 0.05,0.03 0.03,0.06l-0.02 0.02c-0.02,0.03 -0.07,0.03 -0.09,0l-0.02 -0.02c-0.02,-0.03 -0.01,-0.06 0.03,-0.06l0.07 0z"/>
   <path class="fil3" d="M0.77 0.88c0,0.01 -0.01,0.02 -0.02,0.02 -0.01,0 -0.02,-0.01 -0.02,-0.02 0,-0.01 0.01,-0.02 0.02,-0.02 0.01,0 0.02,0.01 0.02,0.02z"/>
   <path class="fil3" d="M0.84 0.88c0,0.01 -0.01,0.02 -0.02,0.02 -0.01,0 -0.02,-0.01 -0.02,-0.02 0,-0.01 0.01,-0.02 0.02,-0.02 0.01,0 0.02,0.01 0.02,0.02z"/>
   <path class="fil3" d="M0.78 0.94c0,0 -0.04,-0.02 -0.07,0 -0.03,0.02 -0.07,0.05 -0.08,0.01 0,0 -0,0.06 0.08,0.06 0.08,-0.01 0.08,-0.05 0.08,-0.06z"/>
   <path class="fil3" d="M0.78 0.94c0,0 0.04,-0.02 0.07,0 0.03,0.02 0.07,0.05 0.08,0.01 0,0 0,0.06 -0.08,0.06 -0.08,-0.01 -0.08,-0.05 -0.08,-0.06z"/>
   <path class="fil5" d="M1.12 0.61c-0.01,0 -0.01,-0 -0.01,-0 0,-0 0.01,-0 0.01,-0 0.01,0 0.01,0 0.01,0 0,0 -0.01,0 -0.01,0zm-0.02 0.07c-0,0.03 -0.01,0.05 -0.01,0.08 -0,0.01 -0.01,0.02 -0.02,0.03 -0.01,0.01 -0.02,0.01 -0.03,0.02 -0.01,0 -0.03,0 -0.04,0 -0.02,0 -0.04,-0 -0.06,-0.01 -0.02,-0 -0.04,-0.02 -0.05,-0.03 -0.02,-0.02 -0.03,-0.05 -0.03,-0.07 -0,-0.01 -0.01,-0.02 -0,-0.04 0,-0.01 0,-0.01 0,-0.02 0,-0.01 0.01,-0.02 0.02,-0.03 0.01,-0.01 0.03,-0.01 0.04,-0.01 0.01,-0 0.03,-0.01 0.04,-0.01 0.01,-0 0.02,-0 0.03,-0 0.03,0 0.06,0 0.09,0.01 0,0 0.01,0 0.01,0.01 0,0 0.01,0.01 0.01,0.01 0,0 0,0.01 0.01,0.01 0,0.01 0,0.01 0,0.02 0,0.01 0,0.02 0,0.03zm-0.38 0.01c-0.01,0.02 -0.01,0.04 -0.02,0.06 -0.01,0.01 -0.01,0.02 -0.02,0.03 -0.01,0.01 -0.03,0.02 -0.04,0.02 -0.03,0.01 -0.06,0.01 -0.09,0.01 -0.01,-0 -0.01,-0 -0.02,-0 -0.01,-0 -0.02,-0.01 -0.03,-0.02 -0.01,-0.01 -0.01,-0.02 -0.02,-0.04 -0,-0.02 -0.01,-0.04 -0.01,-0.05 -0,-0.01 -0,-0.02 0,-0.03 0,-0.01 0,-0.01 0,-0.02 0,-0.02 0.02,-0.03 0.03,-0.04 0.02,-0 0.03,-0.01 0.05,-0.01 0.01,-0 0.03,-0 0.03,-0 0.03,0 0.05,0 0.08,0.01 0.01,0 0.02,0 0.03,0.01 0,0 0.01,0.01 0.01,0.01 0.01,0.01 0.01,0.01 0.01,0.02 0,0.02 0,0.03 -0,0.05zm-0.28 -0.08c-0.01,0 -0.01,-0 -0.01,-0 0,-0 0.01,-0 0.01,-0 0.01,0 0.01,0 0.01,0 0,0 -0.01,0 -0.01,0zm0.72 -0.02c-0,-0 -0,-0 -0,-0 -0,-0 -0,-0 -0,-0 -0.02,-0 -0.05,-0.01 -0.07,-0.01 -0.02,-0 -0.04,-0 -0.06,-0 -0.04,-0 -0.07,-0 -0.11,0 -0.02,0 -0.04,0.01 -0.07,0.01 -0.01,0 -0.02,0.01 -0.03,0.01 -0.02,0.01 -0.03,0.01 -0.05,0 -0.01,-0 -0.02,-0 -0.03,-0.01 -0.02,-0.01 -0.04,-0.01 -0.06,-0.02 -0.04,-0.01 -0.07,-0.01 -0.11,-0.01 -0.03,0 -0.05,0 -0.08,0 -0.02,0 -0.04,0.01 -0.06,0.01 -0,0 -0.01,0 -0.01,0 -0,0 -0,0 -0,0 -0,0.01 -0,0.02 -0,0.04 -0,0 0,0 0,0.01 0,0 0,0 0,0 0,0 0,0 0,0 0.01,0 0.01,0.01 0.01,0.02 0,0.01 0,0.01 0,0.02 0,0 0,0.01 0,0.01 0,0.02 0.01,0.03 0.01,0.05 0,0.02 0.01,0.03 0.02,0.04 0.01,0.02 0.02,0.03 0.04,0.03 0.01,0 0.02,0.01 0.03,0.01 0.02,0 0.04,0 0.06,0 0.02,-0 0.04,-0 0.06,-0.01 0.01,-0 0.03,-0.01 0.04,-0.02 0.02,-0.01 0.03,-0.03 0.04,-0.05 0.01,-0.02 0.02,-0.04 0.02,-0.06 0,-0.01 0,-0.01 0.01,-0.02 0,-0.01 0.01,-0.01 0.02,-0.02 0,-0 0.01,-0 0.01,-0 0.01,0 0.01,0 0.02,0.01 0,0 0,0.01 0.01,0.01 0,0.01 0.01,0.01 0.01,0.02 0.01,0.03 0.02,0.05 0.03,0.08 0.01,0.02 0.03,0.04 0.05,0.05 0.01,0.01 0.03,0.01 0.05,0.02 0.02,0 0.05,0.01 0.07,0 0.01,-0 0.03,-0 0.04,-0.01 0.01,-0 0.03,-0.01 0.04,-0.02 0.01,-0.01 0.01,-0.02 0.01,-0.03 0.01,-0.02 0.01,-0.04 0.02,-0.06 0,-0.01 0,-0.02 0.01,-0.03 0,-0.01 0,-0.01 0,-0.02 0,-0 0,-0.01 0.01,-0.01 0,-0 0.01,-0.01 0.01,-0.01 0,-0 0,-0 0,-0 0,-0 0,-0 0,-0 0,-0.01 0,-0.01 -0,-0.02 -0,-0.01 -0,-0.01 -0,-0.02z"/>
  </g>
 </g>
</svg>
