<?xml version="1.0" encoding="UTF-8"?>
<!DOCTYPE svg PUBLIC "-//W3C//DTD SVG 1.1//EN" "http://www.w3.org/Graphics/SVG/1.1/DTD/svg11.dtd">
<!-- Creator: CorelDRAW 2018 (64 Bit Versión de evaluación) -->
<svg xmlns="http://www.w3.org/2000/svg" xml:space="preserve" width="0.268862in" height="0.208587in" version="1.1" style="shape-rendering:geometricPrecision; text-rendering:geometricPrecision; image-rendering:optimizeQuality; fill-rule:evenodd; clip-rule:evenodd"
viewBox="0 0 2.68 2.08"
 xmlns:xlink="http://www.w3.org/1999/xlink">
 <defs>
  <style type="text/css">
   <![CDATA[
    .fil5 {fill:#FEFEFE;fill-rule:nonzero}
    .fil2 {fill:#E3C69D;fill-rule:nonzero}
    .fil1 {fill:#D29E62;fill-rule:nonzero}
    .fil3 {fill:#C07952;fill-rule:nonzero}
    .fil0 {fill:#8FD2C8;fill-rule:nonzero}
    .fil4 {fill:#332F2D;fill-rule:nonzero}
    .fil6 {fill:#282828;fill-rule:nonzero}
   ]]>
  </style>
 </defs>
 <g id="Capa_x0020_1">
  <metadata id="CorelCorpID_0Corel-Layer"/>
  <g id="_1696522877920">
   <path class="fil0" d="M2.33 1.04c0,-0.57 -0.47,-1.04 -1.04,-1.04 -0.57,0 -1.04,0.47 -1.04,1.04 0,0.57 0.47,1.04 1.04,1.04 0.57,0 1.04,-0.47 1.04,-1.04z"/>
   <path class="fil1" d="M1.78 1.96c0,-0.05 0,-0.09 0,-0.11 0,-0.32 -0.2,-0.57 -0.44,-0.57 -0.24,0 -0.44,0.26 -0.44,0.57 0,0.02 0,0.1 0,0.16 0.12,0.05 0.25,0.07 0.39,0.07 0.18,0 0.34,-0.04 0.49,-0.12z"/>
   <path class="fil2" d="M1.14 1.43c0,0 -0.12,0.29 -0.05,0.4 0.07,0.1 0.24,0.24 0.25,0.26l0 -0c0.02,-0.02 0.28,-0.19 0.28,-0.33 0,-0.14 -0.08,-0.37 -0.08,-0.37l-0.4 0.04z"/>
   <path class="fil3" d="M1.07 1.39c0.09,0.07 0.09,0.11 0.1,0.22 0.03,0.21 0.12,0.2 0.17,0.2l0 -0.4c0,0 -0.22,-0.18 -0.33,-0.24 -0.01,0.05 -0.03,0.15 0.06,0.22z"/>
   <path class="fil3" d="M1.67 1.17c-0.11,0.07 -0.33,0.24 -0.33,0.24l0 0.4c0.05,0 0.14,0.01 0.17,-0.2 0.01,-0.11 0.01,-0.15 0.1,-0.22 0.09,-0.07 0.07,-0.17 0.06,-0.22z"/>
   <path class="fil3" d="M1.59 0.87c0,0 0.16,-0.14 0.35,-0.06 -0.05,0.11 -0.13,0.19 -0.31,0.2l-0.05 -0.15z"/>
   <path class="fil4" d="M1.6 0.91c0,0 0.17,-0.1 0.27,-0.05 -0.02,0.05 -0.15,0.14 -0.24,0.14l-0.03 -0.09z"/>
   <path class="fil3" d="M1.09 0.86c0,0 -0.16,-0.14 -0.35,-0.06 0.05,0.11 0.13,0.19 0.31,0.2l0.05 -0.15z"/>
   <path class="fil4" d="M1.07 0.9c0,0 -0.17,-0.1 -0.27,-0.05 0.02,0.05 0.15,0.14 0.24,0.14l0.03 -0.09z"/>
   <path class="fil1" d="M1.64 0.84l-0.09 -0.04 -0.21 0.08 -0.21 -0.08 -0.09 0.04c0,0 0.01,0.23 -0.03,0.34 0.09,0.03 0.19,0.2 0.25,0.39l0.17 0c0.05,-0.18 0.15,-0.36 0.25,-0.39 -0.04,-0.12 -0.03,-0.34 -0.03,-0.34z"/>
   <path class="fil4" d="M1.38 1.54c0.05,0 0.06,0.03 0.03,0.07l-0.02 0.02c-0.03,0.04 -0.08,0.04 -0.11,0l-0.02 -0.02c-0.03,-0.04 -0.01,-0.07 0.03,-0.07l0.08 0z"/>
   <path class="fil5" d="M1.66 1.23c0,0 -0.15,-0.04 -0.14,0.11 0,0 0.14,0.05 0.14,-0.11z"/>
   <path class="fil4" d="M1.54 1.27c0,0.02 0.02,0.04 0.04,0.04 0.02,0 0.04,-0.02 0.04,-0.04 0,-0.02 -0.02,-0.04 -0.04,-0.04 -0.02,0 -0.04,0.02 -0.04,0.04z"/>
   <path class="fil5" d="M1.56 1.27c0,0 0,0.01 0.01,0.01 0,0 0.01,-0 0.01,-0.01 0,-0 -0,-0.01 -0.01,-0.01 -0,0 -0.01,0 -0.01,0.01z"/>
   <path class="fil5" d="M1.02 1.23c0,0 0.15,-0.04 0.14,0.11 0,0 -0.14,0.05 -0.14,-0.11z"/>
   <path class="fil4" d="M1.14 1.27c0,0.02 -0.02,0.04 -0.04,0.04 -0.02,0 -0.04,-0.02 -0.04,-0.04 0,-0.02 0.02,-0.04 0.04,-0.04 0.02,0 0.04,0.02 0.04,0.04z"/>
   <path class="fil5" d="M1.12 1.27c0,0 -0,0.01 -0.01,0.01 -0,0 -0.01,-0 -0.01,-0.01 0,-0 0,-0.01 0.01,-0.01 0,0 0.01,0 0.01,0.01z"/>
   <path class="fil6" d="M1.52 1.84c-0.03,-0.01 -0.15,0.06 -0.15,0.06 -0.01,-0.01 -0.02,-0.01 -0.03,-0.01 -0.01,0 -0.02,0.01 -0.03,0.01 0,0 -0.13,-0.08 -0.15,-0.06 -0.02,0.01 -0.02,0.16 0,0.18 0.02,0.01 0.15,-0.06 0.15,-0.06 0.01,0.01 0.02,0.01 0.03,0.01 0.01,0 0.02,-0 0.03,-0.01 0,0 0.13,0.08 0.15,0.06 0.02,-0.02 0.03,-0.17 0,-0.18z"/>
   <path class="fil4" d="M1.34 1.66c0,0 -0.06,-0.01 -0.07,0.03 -0.02,0.04 -0.06,0.08 -0.08,0.07 -0.04,-0.02 -0.02,-0.07 0.01,-0.08 -0.02,-0.02 -0.09,0.04 -0.04,0.08 0.05,0.05 0.16,-0 0.18,-0.06 0,-0.03 0,-0.05 0,-0.05z"/>
   <path class="fil4" d="M1.34 1.66c0,0 0.06,-0.01 0.07,0.03 0.02,0.04 0.06,0.08 0.08,0.07 0.04,-0.02 0.02,-0.07 -0.01,-0.08 0.02,-0.02 0.09,0.04 0.04,0.08 -0.05,0.05 -0.16,-0 -0.18,-0.06 0,-0.03 0,-0.05 0,-0.05z"/>
   <path class="fil6" d="M1.11 1.44c-0.07,0 -0.13,-0.06 -0.13,-0.13 0,-0.07 0.06,-0.13 0.13,-0.13 0.07,0 0.13,0.06 0.13,0.13 0,0.07 -0.06,0.13 -0.13,0.13zm0 -0.29c-0.09,0 -0.16,0.07 -0.16,0.16 0,0.09 0.07,0.16 0.16,0.16 0.09,0 0.16,-0.07 0.16,-0.16 0,-0.09 -0.07,-0.16 -0.16,-0.16z"/>
   <polygon class="fil6" points="0.9,1.32 0.98,1.32 0.98,1.29 0.9,1.29 "/>
   <polygon class="fil6" points="0.9,1.94 0.93,1.94 0.93,1.3 0.9,1.3 "/>
   <path class="fil1" d="M1.63 0.86c0,0 0.05,-0.17 0.13,-0.2 0.08,-0.03 0.18,-0.03 0.34,-0.01 0.17,0.02 0.39,-0.06 0.52,-0.26 0.13,-0.2 0.02,-0.13 -0.02,-0.08 -0.03,0.06 -0.19,0.22 -0.32,0.25 -0.13,0.03 -0.27,0.01 -0.28,-0.04 -0.01,-0.05 0.16,-0.29 0.25,-0.34 0.08,-0.05 0.1,-0.14 -0.01,-0.05 -0.11,0.09 -0.22,0.21 -0.33,0.41 -0.05,0.02 -0.16,0.05 -0.2,0.02 -0.04,-0.03 0.01,-0.29 0.1,-0.39 0.09,-0.09 0.17,-0.14 0.25,-0.13 0.08,0.01 0.07,-0.06 -0.04,-0.04 -0.1,0.02 -0.34,0.02 -0.41,0.39 -0.02,0.1 0.01,0.25 0.01,0.25l-0.08 0.15 0.09 0.06z"/>
   <path class="fil1" d="M1.05 0.86c0,0 -0.05,-0.17 -0.13,-0.2 -0.08,-0.03 -0.18,-0.03 -0.34,-0.01 -0.17,0.02 -0.39,-0.06 -0.52,-0.26 -0.13,-0.2 -0.02,-0.13 0.02,-0.08 0.03,0.06 0.19,0.22 0.32,0.25 0.13,0.03 0.27,0.01 0.28,-0.04 0.01,-0.05 -0.16,-0.29 -0.25,-0.34 -0.08,-0.05 -0.1,-0.14 0.01,-0.05 0.11,0.09 0.22,0.21 0.33,0.41 0.05,0.02 0.16,0.05 0.2,0.02 0.04,-0.03 -0.01,-0.29 -0.1,-0.39 -0.09,-0.09 -0.17,-0.14 -0.25,-0.13 -0.08,0.01 -0.07,-0.06 0.04,-0.04 0.1,0.02 0.34,0.02 0.41,0.39 0.02,0.1 -0.01,0.25 -0.01,0.25l0.08 0.15 -0.09 0.06z"/>
  </g>
 </g>
</svg>
