<?xml version="1.0" encoding="UTF-8"?>
<!DOCTYPE svg PUBLIC "-//W3C//DTD SVG 1.1//EN" "http://www.w3.org/Graphics/SVG/1.1/DTD/svg11.dtd">
<!-- Creator: CorelDRAW 2018 (64 Bit Versión de evaluación) -->
<svg xmlns="http://www.w3.org/2000/svg" xml:space="preserve" width="0.208587in" height="0.208587in" version="1.1" style="shape-rendering:geometricPrecision; text-rendering:geometricPrecision; image-rendering:optimizeQuality; fill-rule:evenodd; clip-rule:evenodd"
viewBox="0 0 1.62 1.62"
 xmlns:xlink="http://www.w3.org/1999/xlink">
 <defs>
  <style type="text/css">
   <![CDATA[
    .fil3 {fill:#FEFEFE;fill-rule:nonzero}
    .fil1 {fill:#F9BEB2;fill-rule:nonzero}
    .fil0 {fill:#F37755;fill-rule:nonzero}
    .fil2 {fill:#D8717E;fill-rule:nonzero}
    .fil4 {fill:#332F2D;fill-rule:nonzero}
    .fil5 {fill:#484948;fill-rule:nonzero}
    .fil7 {fill:#282828;fill-rule:nonzero}
    .fil6 {fill:#39383D;fill-rule:nonzero}
   ]]>
  </style>
 </defs>
 <g id="Capa_x0020_1">
  <metadata id="CorelCorpID_0Corel-Layer"/>
  <g id="_1697175000944">
   <path class="fil0" d="M1.62 0.81c0,-0.45 -0.36,-0.81 -0.81,-0.81 -0.45,0 -0.81,0.36 -0.81,0.81 0,0.45 0.36,0.81 0.81,0.81 0.45,0 0.81,-0.36 0.81,-0.81z"/>
   <path class="fil1" d="M0.79 1.04c-0.22,0 -0.41,0.18 -0.47,0.42 0.13,0.1 0.3,0.16 0.48,0.16 0.17,0 0.33,-0.05 0.46,-0.14 -0.05,-0.25 -0.24,-0.44 -0.47,-0.44z"/>
   <path class="fil1" d="M0.09 0.49c0,0 0.26,-0.12 0.35,0.02 0.09,0.14 0.12,0.18 0.12,0.18 0,0 -0.28,0.09 -0.37,-0.04 -0.09,-0.14 -0.1,-0.15 -0.1,-0.15z"/>
   <path class="fil2" d="M0.17 0.52c0,0 0.17,-0.08 0.23,0.01 0.06,0.09 0.08,0.12 0.08,0.12 0,0 -0.18,0.06 -0.24,-0.03 -0.06,-0.09 -0.06,-0.1 -0.06,-0.1z"/>
   <path class="fil1" d="M1.53 0.51c0,0 -0.26,-0.14 -0.35,-0.01 -0.1,0.13 -0.13,0.17 -0.13,0.17 0,0 0.28,0.11 0.37,-0.02 0.1,-0.13 0.11,-0.15 0.11,-0.15z"/>
   <path class="fil2" d="M1.44 0.54c0,0 -0.17,-0.09 -0.23,-0 -0.06,0.08 -0.08,0.11 -0.08,0.11 0,0 0.18,0.07 0.24,-0.01 0.06,-0.08 0.07,-0.1 0.07,-0.1z"/>
   <path class="fil1" d="M1.16 0.71c0,-0.01 0,-0.02 0,-0.03 0,-0.15 -0.16,-0.27 -0.37,-0.27 -0.2,0 -0.37,0.12 -0.37,0.27 0,0.01 0,0.02 0,0.03 -0.04,0.05 -0.07,0.11 -0.07,0.17 0,0.18 0.19,0.32 0.43,0.32 0.24,0 0.43,-0.14 0.43,-0.32 0,-0.06 -0.03,-0.12 -0.07,-0.17z"/>
   <path class="fil3" d="M1 0.69c0,0 -0.11,-0.03 -0.11,0.08 0,0 0.11,0.04 0.11,-0.08z"/>
   <path class="fil4" d="M0.92 0.72c0,0.01 0.01,0.03 0.03,0.03 0.01,0 0.03,-0.01 0.03,-0.03 0,-0.01 -0.01,-0.03 -0.03,-0.03 -0.01,0 -0.03,0.01 -0.03,0.03z"/>
   <path class="fil3" d="M0.93 0.72c0,0 0,0.01 0.01,0.01 0,0 0.01,-0 0.01,-0.01 0,-0 -0,-0.01 -0.01,-0.01 -0,0 -0.01,0 -0.01,0.01z"/>
   <path class="fil3" d="M0.58 0.69c0,0 0.11,-0.03 0.11,0.08 0,0 -0.11,0.04 -0.11,-0.08z"/>
   <path class="fil4" d="M0.67 0.72c0,0.01 -0.01,0.03 -0.03,0.03 -0.01,0 -0.03,-0.01 -0.03,-0.03 0,-0.01 0.01,-0.03 0.03,-0.03 0.01,0 0.03,0.01 0.03,0.03z"/>
   <path class="fil3" d="M0.66 0.72c0,0 -0,0.01 -0.01,0.01 -0,0 -0.01,-0 -0.01,-0.01 0,-0 0,-0.01 0.01,-0.01 0,0 0.01,0 0.01,0.01z"/>
   <path class="fil2" d="M0.79 1.03c-0.08,0 -0.14,-0.04 -0.14,-0.09 0,-0.05 0.06,-0.09 0.14,-0.09 0.08,0 0.14,0.04 0.14,0.09 0,0.05 -0.06,0.09 -0.14,0.09z"/>
   <path class="fil5" d="M0.76 0.94c0,0.01 -0.01,0.03 -0.03,0.03 -0.01,0 -0.03,-0.01 -0.03,-0.03 0,-0.01 0.01,-0.03 0.03,-0.03 0.01,0 0.03,0.01 0.03,0.03z"/>
   <path class="fil5" d="M0.87 0.94c0,0.01 -0.01,0.03 -0.03,0.03 -0.01,0 -0.03,-0.01 -0.03,-0.03 0,-0.01 0.01,-0.03 0.03,-0.03 0.01,0 0.03,0.01 0.03,0.03z"/>
   <path class="fil6" d="M0.79 1c0,0 -0.05,-0.02 -0.1,0 -0.05,0.02 -0.09,0.06 -0.12,0.01 0,0 -0,0.09 0.11,0.08 0.11,-0.01 0.11,-0.07 0.11,-0.09z"/>
   <path class="fil6" d="M0.8 1c0,0 0.05,-0.02 0.1,0 0.05,0.02 0.09,0.06 0.12,0.01 0,0 0,0.09 -0.11,0.08 -0.11,-0.01 -0.11,-0.07 -0.11,-0.09z"/>
   <path class="fil7" d="M0.94 1.18c-0.02,-0.01 -0.12,0.05 -0.12,0.05 -0.01,-0.01 -0.01,-0.01 -0.02,-0.01 -0.01,0 -0.02,0 -0.02,0.01 0,0 -0.1,-0.06 -0.12,-0.05 -0.02,0.01 -0.02,0.13 0,0.14 0.02,0.01 0.12,-0.05 0.12,-0.05 0.01,0.01 0.01,0.01 0.02,0.01 0.01,0 0.02,-0 0.02,-0.01 0,0 0.1,0.06 0.12,0.05 0.02,-0.01 0.02,-0.13 0,-0.14z"/>
   <path class="fil7" d="M1.1 0.65c-0.01,0 -0.01,-0 -0.01,-0 0,-0 0.01,-0 0.01,-0 0.01,0 0.01,0 0.01,0 0,0 -0.01,0 -0.01,0zm-0.02 0.06c-0,0.02 -0,0.05 -0.01,0.07 -0,0.01 -0.01,0.02 -0.01,0.02 -0.01,0.01 -0.02,0.01 -0.03,0.01 -0.01,0 -0.03,0 -0.04,0 -0.02,0 -0.04,-0 -0.06,-0.01 -0.02,-0 -0.03,-0.01 -0.05,-0.03 -0.02,-0.02 -0.03,-0.04 -0.03,-0.06 -0,-0.01 -0,-0.02 -0,-0.03 0,-0 0,-0.01 0,-0.01 0,-0.01 0.01,-0.02 0.02,-0.02 0.01,-0 0.02,-0.01 0.03,-0.01 0.01,-0 0.03,-0 0.04,-0.01 0.01,-0 0.02,-0 0.03,-0 0.03,0 0.05,0 0.08,0.01 0,0 0.01,0 0.01,0.01 0,0 0.01,0 0.01,0.01 0,0 0,0.01 0.01,0.01 0,0.01 0,0.01 0,0.02 0,0.01 0,0.02 0,0.03zm-0.34 0.01c-0,0.02 -0.01,0.04 -0.02,0.05 -0.01,0.01 -0.01,0.02 -0.02,0.03 -0.01,0.01 -0.02,0.02 -0.04,0.02 -0.03,0.01 -0.05,0.01 -0.08,0 -0.01,-0 -0.01,-0 -0.02,-0 -0.01,-0 -0.02,-0.01 -0.03,-0.02 -0.01,-0.01 -0.01,-0.02 -0.01,-0.03 -0,-0.02 -0.01,-0.03 -0.01,-0.05 -0,-0.01 -0,-0.02 0,-0.03 0,-0 0,-0.01 0,-0.01 0,-0.02 0.01,-0.03 0.03,-0.03 0.01,-0 0.03,-0.01 0.05,-0.01 0.01,-0 0.02,-0 0.03,-0 0.03,0 0.05,0 0.07,0.01 0.01,0 0.02,0 0.03,0.01 0,0 0.01,0 0.01,0.01 0.01,0 0.01,0.01 0.01,0.02 0,0.02 0,0.03 -0,0.04zm-0.25 -0.07c-0.01,0 -0.01,-0 -0.01,-0 0,-0 0.01,-0 0.01,-0 0.01,0 0.01,0 0.01,0 0,0 -0.01,0 -0.01,0zm0.63 -0.02c-0,-0 -0,-0 -0,-0 -0,-0 -0,-0 -0,-0 -0.02,-0 -0.04,-0.01 -0.06,-0.01 -0.02,-0 -0.03,-0 -0.05,-0 -0.03,-0 -0.06,-0 -0.1,0 -0.02,0 -0.04,0.01 -0.06,0.01 -0.01,0 -0.02,0.01 -0.03,0.01 -0.01,0 -0.03,0.01 -0.05,0 -0.01,-0 -0.02,-0 -0.03,-0.01 -0.02,-0.01 -0.03,-0.01 -0.05,-0.01 -0.03,-0.01 -0.07,-0.01 -0.1,-0.01 -0.03,0 -0.05,0 -0.07,0 -0.02,0 -0.04,0 -0.06,0.01 -0,0 -0.01,0 -0.01,0 -0,0 -0,0 -0,0 -0,0.01 -0,0.02 -0,0.03 -0,0 0,0 0,0 0,0 0,0 0,0 0,0 0,0 0,0 0.01,0 0.01,0.01 0.01,0.02 0,0 0,0.01 0,0.01 0,0 0,0.01 0,0.01 0,0.01 0.01,0.03 0.01,0.04 0,0.01 0.01,0.03 0.01,0.04 0.01,0.01 0.02,0.02 0.03,0.03 0.01,0 0.02,0.01 0.03,0.01 0.02,0 0.03,0 0.05,0 0.02,-0 0.03,-0 0.05,-0.01 0.01,-0 0.02,-0.01 0.03,-0.02 0.02,-0.01 0.03,-0.03 0.04,-0.05 0.01,-0.02 0.02,-0.04 0.02,-0.05 0,-0.01 0,-0.01 0.01,-0.02 0,-0.01 0.01,-0.01 0.02,-0.01 0,-0 0.01,-0 0.01,-0 0.01,0 0.01,0 0.02,0.01 0,0 0,0 0,0.01 0,0.01 0,0.01 0.01,0.02 0.01,0.02 0.02,0.05 0.03,0.07 0.01,0.02 0.02,0.03 0.04,0.04 0.01,0.01 0.03,0.01 0.04,0.01 0.02,0 0.04,0.01 0.06,0 0.01,-0 0.03,-0 0.04,-0.01 0.01,-0 0.02,-0.01 0.03,-0.02 0.01,-0.01 0.01,-0.01 0.01,-0.02 0.01,-0.02 0.01,-0.03 0.02,-0.05 0,-0.01 0,-0.02 0.01,-0.03 0,-0 0,-0.01 0,-0.01 0,-0 0,-0.01 0,-0.01 0,-0 0.01,-0.01 0.01,-0.01 0,-0 0,-0 0,-0 0,-0 0,-0 0,-0 0,-0.01 0,-0.01 -0,-0.02 -0,-0 -0,-0.01 -0,-0.01z"/>
  </g>
 </g>
</svg>
