<?xml version="1.0" encoding="UTF-8"?>
<!DOCTYPE svg PUBLIC "-//W3C//DTD SVG 1.1//EN" "http://www.w3.org/Graphics/SVG/1.1/DTD/svg11.dtd">
<!-- Creator: CorelDRAW 2018 (64 Bit Versión de evaluación) -->
<svg xmlns="http://www.w3.org/2000/svg" xml:space="preserve" width="0.208587in" height="0.208587in" version="1.1" style="shape-rendering:geometricPrecision; text-rendering:geometricPrecision; image-rendering:optimizeQuality; fill-rule:evenodd; clip-rule:evenodd"
viewBox="0 0 1.58 1.58"
 xmlns:xlink="http://www.w3.org/1999/xlink">
 <defs>
  <style type="text/css">
   <![CDATA[
    .fil9 {fill:#FEFEFE;fill-rule:nonzero}
    .fil11 {fill:#F8A88C;fill-rule:nonzero}
    .fil1 {fill:#F1613B;fill-rule:nonzero}
    .fil14 {fill:#FAFCFA;fill-rule:nonzero}
    .fil2 {fill:#F4FAF8;fill-rule:nonzero}
    .fil3 {fill:#F6F3D0;fill-rule:nonzero}
    .fil5 {fill:#E9683F;fill-rule:nonzero}
    .fil7 {fill:#AB5137;fill-rule:nonzero}
    .fil12 {fill:#84807D;fill-rule:nonzero}
    .fil13 {fill:#7EB1C2;fill-rule:nonzero}
    .fil15 {fill:#42322D;fill-rule:nonzero}
    .fil8 {fill:#332F2D;fill-rule:nonzero}
    .fil4 {fill:#383536;fill-rule:nonzero}
    .fil10 {fill:#282828;fill-rule:nonzero}
    .fil6 {fill:#2B3133;fill-rule:nonzero}
    .fil0 {fill:#287493;fill-rule:nonzero}
   ]]>
  </style>
 </defs>
 <g id="Capa_x0020_1">
  <metadata id="CorelCorpID_0Corel-Layer"/>
  <g id="_1696522917920">
   <path class="fil0" d="M1.58 0.79c0,-0.44 -0.35,-0.79 -0.79,-0.79 -0.44,0 -0.79,0.35 -0.79,0.79 0,0.44 0.35,0.79 0.79,0.79 0.44,0 0.79,-0.35 0.79,-0.79z"/>
   <path class="fil1" d="M0.82 1.08c-0.18,0 -0.34,0.18 -0.37,0.42 0.1,0.05 0.22,0.08 0.34,0.08 0.14,0 0.27,-0.04 0.39,-0.1 -0.03,-0.23 -0.18,-0.4 -0.36,-0.4z"/>
   <path class="fil2" d="M0.72 1.23c0.03,0.06 0.12,0.13 0.19,0 -0,-0.06 -0.06,-0.07 -0.09,-0.07 -0.07,0 -0.1,0.07 -0.1,0.07z"/>
   <path class="fil3" d="M1.27 1.04c-0.01,-0 -0.01,-0.01 -0.02,-0.01 0,0 0,0 0.01,0 0.01,0 0.01,0 0.01,0.01z"/>
   <path class="fil3" d="M1.27 1.04c-0,-0 -0.01,-0.01 -0.01,-0.01 0.01,0.01 0.01,0.01 0.01,0.01z"/>
   <path class="fil3" d="M0.38 1.03c-0.01,0 -0.02,0.01 -0.02,0.01 0,-0 0.01,-0.01 0.01,-0.01 0,-0 0,-0 0.01,-0z"/>
   <path class="fil3" d="M0.36 1.04c0,0 0.01,-0 0.01,-0.01 -0.01,0 -0.01,0 -0.01,0.01z"/>
   <path class="fil4" d="M0.95 0.63c0.07,-0.28 0.3,-0.38 0.3,-0.38 0,0 0.17,0.43 -0.15,0.53l-0.15 -0.15z"/>
   <path class="fil1" d="M0.99 0.66c0.09,-0.27 0.23,-0.32 0.23,-0.32 0,0 0.12,0.26 -0.15,0.41l-0.09 -0.1z"/>
   <path class="fil4" d="M0.68 0.63c-0.07,-0.28 -0.3,-0.38 -0.3,-0.38 0,0 -0.17,0.43 0.15,0.53l0.15 -0.15z"/>
   <path class="fil1" d="M0.65 0.66c-0.09,-0.27 -0.23,-0.32 -0.23,-0.32 0,0 -0.12,0.26 0.15,0.41l0.09 -0.1z"/>
   <path class="fil2" d="M0.91 1.23c-0.01,-0.02 -0.03,-0.04 -0.05,-0.05 0.02,-0.03 0.07,-0.1 0.2,-0.14 0.09,-0.03 0.17,-0.01 0.2,0.01 0,0 -0.09,0.12 -0.36,0.18z"/>
   <path class="fil2" d="M0.72 1.23c0.01,-0.02 0.03,-0.04 0.05,-0.05 -0.02,-0.03 -0.07,-0.1 -0.2,-0.14 -0.09,-0.03 -0.17,-0.01 -0.2,0.01 0,0 0.09,0.12 0.36,0.18z"/>
   <path class="fil1" d="M1.16 0.92c0,-0 0,-0.01 0,-0.01 0,-0.19 -0.16,-0.35 -0.35,-0.35l0 0 -0 0 -0 0 0 0c-0.19,0 -0.35,0.16 -0.35,0.35 0,0 0,0.01 0,0.01 -0.02,0.07 -0.07,0.1 -0.09,0.12 0.04,-0.02 0.11,-0.02 0.19,-0 0.1,0.03 0.18,0.11 0.2,0.14 0.01,-0.01 0.03,-0.01 0.05,-0.01 0.02,0 0.03,0.01 0.05,0.01 0.02,-0.04 0.1,-0.12 0.2,-0.14 0.08,-0.02 0.15,-0.01 0.19,0 -0.03,-0.01 -0.08,-0.05 -0.09,-0.12z"/>
   <path class="fil1" d="M1.26 1.04c0.01,0.01 0.01,0.01 0.01,0.01 -0,-0 -0.01,-0.01 -0.01,-0.01z"/>
   <path class="fil1" d="M0.38 1.04c-0.01,0 -0.01,0 -0.01,0.01 0,0 0.01,-0 0.01,-0.01z"/>
   <polygon class="fil5" points="0.82,0.56 0.82,0.56 0.82,0.56 "/>
   <polygon class="fil6" points="0.77,1.17 0.77,1.17 0.77,1.18 "/>
   <polygon class="fil7" points="0.82,0.56 0.82,0.56 0.82,0.56 "/>
   <polygon class="fil7" points="0.82,0.86 0.82,0.56 0.82,0.56 0.82,0.56 0.82,0.86 "/>
   <polygon class="fil7" points="0.82,1.16 0.82,1.16 0.82,1.16 0.82,0.86 0.82,0.86 "/>
   <path class="fil7" d="M0.77 1.17l0 0c0.01,-0.01 0.03,-0.01 0.05,-0.01l0 -0c-0.02,0 -0.03,0 -0.05,0.01z"/>
   <polygon class="fil7" points="0.82,1.16 0.82,1.16 0.82,1.16 "/>
   <path class="fil8" d="M0.85 1.11c0.03,0 0.05,0.02 0.02,0.05l-0.01 0.02c-0.02,0.03 -0.06,0.03 -0.08,0l-0.01 -0.02c-0.02,-0.03 -0.01,-0.05 0.02,-0.05l0.06 0z"/>
   <path class="fil8" d="M0.71 1.22c0,0 0.06,0.02 0.1,-0.03 0.04,0.03 0.06,0.04 0.11,0.02 -0.04,0.05 -0.09,0.03 -0.11,0.03 -0.03,0.01 -0.09,0.01 -0.1,-0.02z"/>
   <path class="fil9" d="M0.62 0.85c0,0 0.12,-0.03 0.11,0.08 0,0 -0.11,0.04 -0.11,-0.08z"/>
   <path class="fil8" d="M0.71 0.89c0,0.02 -0.01,0.03 -0.03,0.03 -0.02,0 -0.03,-0.01 -0.03,-0.03 0,-0.02 0.01,-0.03 0.03,-0.03 0.02,0 0.03,0.01 0.03,0.03z"/>
   <path class="fil9" d="M0.7 0.88c0,0 -0,0.01 -0.01,0.01 -0,0 -0.01,-0 -0.01,-0.01 0,-0 0,-0.01 0.01,-0.01 0,0 0.01,0 0.01,0.01z"/>
   <path class="fil9" d="M1.01 0.85c0,0 -0.12,-0.03 -0.11,0.08 0,0 0.11,0.04 0.11,-0.08z"/>
   <path class="fil8" d="M0.92 0.89c0,0.02 0.01,0.03 0.03,0.03 0.02,0 0.03,-0.01 0.03,-0.03 0,-0.02 -0.01,-0.03 -0.03,-0.03 -0.02,0 -0.03,0.01 -0.03,0.03z"/>
   <path class="fil9" d="M0.93 0.88c0,0 0,0.01 0.01,0.01 0,0 0.01,-0 0.01,-0.01 0,-0 -0,-0.01 -0.01,-0.01 -0,0 -0.01,0 -0.01,0.01z"/>
   <path class="fil10" d="M0.95 1.29c-0.02,-0.01 -0.12,0.05 -0.12,0.05 -0.01,-0.01 -0.01,-0.01 -0.02,-0.01 -0.01,0 -0.02,0 -0.02,0.01 0,0 -0.1,-0.06 -0.11,-0.05 -0.02,0.01 -0.02,0.12 0,0.14 0.02,0.01 0.12,-0.05 0.12,-0.05 0.01,0.01 0.01,0.01 0.02,0.01 0.01,0 0.02,-0 0.02,-0.01 0,0 0.1,0.06 0.12,0.05 0.02,-0.01 0.02,-0.13 0,-0.14z"/>
   <polygon class="fil11" points="0.64,1.04 0.64,1.04 0.6,1.04 0.53,0.8 0.56,0.78 "/>
   <path class="fil11" d="M1.01 1.04l-0.03 -0 -0.03 -0.1c0.01,-0 0.02,-0 0.03,-0.01l0.03 0.11 0 0zm-0.08 -0.18l-0.03 -0.09 0.03 -0 0.02 0.09c-0.01,0 -0.02,0.01 -0.03,0.01z"/>
   <path class="fil9" d="M0.95 0.94l-0.01 -0.03c0,0 0,0 0,0 0.01,0 0.02,-0.01 0.02,-0.01l0.01 0.03c-0.01,0 -0.02,0.01 -0.03,0.01zm-0.02 -0.08l-0 -0c0.01,-0.01 0.02,-0.01 0.03,-0.01l0 0.01c-0,-0 -0.01,-0 -0.01,-0 -0.01,0 -0.01,0 -0.02,0z"/>
   <path class="fil12" d="M0.95 0.92c-0,0 -0,0 -0,-0l-0.01 -0.03c0,-0 0,-0 0,-0.01 0,-0 -0,-0.01 -0.01,-0.01 -0,0 -0,0 -0,0l-0 -0c0,-0 0.01,-0 0.02,-0 0,0 0.01,0 0.01,0l0.01 0.04c-0,0.01 -0.01,0.01 -0.02,0.01z"/>
   <path class="fil9" d="M0.94 0.88l-0 -0.01c0,-0 0,-0 0,-0 0,0 0.01,0 0.01,0.01 0,0 -0,0.01 -0,0.01z"/>
   <path class="fil13" d="M0.58 1.04c-0,-0 -0.01,-0 -0.01,-0 0,0 0.01,0 0.01,0l0 0z"/>
   <path class="fil14" d="M0.58 1.04l0 0c-0.01,-0 -0.01,-0 -0.02,-0.01 0,0 0.01,0 0.01,0l0 0c0,0 0.01,0 0.01,0l0 0z"/>
   <path class="fil11" d="M0.58 1.04c-0,-0 -0.01,-0 -0.01,-0l0 0c-0,-0 -0.01,-0 -0.01,-0 -0,0 -0,-0 -0,-0 -0.01,-0 -0.01,-0.01 -0.02,-0.01l-0.05 -0.17 0 -0.01c0,-0 0,-0 0,-0 0.01,-0.01 0.01,-0.02 0.01,-0.03l0 0 0.07 0.23z"/>
   <path class="fil11" d="M0.95 1.02l0 0 -0.03 -0.01 -0.07 -0.23 0.03 -0.01 0.03 0.12c-0.01,0.01 -0.01,0.03 -0.01,0.05 0,0 0.01,0 0.02,0.01l0.02 0.08z"/>
   <path class="fil9" d="M0.92 0.94c-0.01,-0 -0.02,-0.01 -0.02,-0.01 -0,-0.02 0,-0.03 0.01,-0.05l0.02 0.05z"/>
   <path class="fil15" d="M1.1 1.01c-0.02,0.03 -0.07,0.03 -0.1,0.03 -0.06,-0.01 -0.07,-0.03 -0.09,-0.06 -0.02,-0.02 -0.04,-0.07 -0.05,-0.1 -0.01,-0.02 -0,-0.07 0,-0.08 0,-0.01 0.02,-0.02 0.08,-0.03 0.06,-0 0.11,0.01 0.15,0.02 0.03,0.01 0.05,0.06 0.05,0.06 0,0 0,0.01 0,0.05 0,0.04 -0.02,0.08 -0.04,0.11zm-0.32 -0.13c-0.01,0.02 -0.02,0.07 -0.05,0.1 -0.02,0.02 -0.04,0.05 -0.09,0.06 -0.03,0 -0.08,0 -0.1,-0.03 -0.02,-0.03 -0.04,-0.07 -0.04,-0.11 0,-0.04 0,-0.05 0,-0.05 0,0 0.01,-0.04 0.05,-0.06 0.03,-0.01 0.09,-0.02 0.15,-0.02 0.06,0 0.08,0.01 0.08,0.03 0,0.01 0.01,0.06 0,0.08zm0.39 -0.01c-0,-0 -0.01,-0 -0.01,-0.01 -0,-0.01 -0.02,-0.06 -0.04,-0.07 -0.02,-0.01 -0.06,-0.03 -0.16,-0.04 -0.08,-0 -0.12,-0 -0.14,-0l0 -0c0,0 -0,0 -0,0 -0,-0 -0,-0 -0,-0l0 0c-0.01,0 -0.06,0 -0.14,0 -0.1,0.01 -0.14,0.03 -0.16,0.04 -0.02,0.01 -0.04,0.06 -0.04,0.07 -0,0.01 -0.01,0.01 -0.01,0.01 -0,0 0,0.02 0.01,0.03 0.01,0.07 0.04,0.1 0.05,0.12 0.02,0.02 0.06,0.03 0.1,0.03 0.07,-0.01 0.08,-0.03 0.12,-0.07 0.03,-0.03 0.06,-0.11 0.06,-0.12 0,-0.01 0.01,-0.01 0.01,-0.01 0,0 0.01,0 0.01,0.01 0,0.01 0.03,0.09 0.06,0.12 0.03,0.03 0.04,0.05 0.12,0.07 0.03,0 0.08,-0.01 0.1,-0.03 0.02,-0.02 0.04,-0.06 0.05,-0.12 0.01,-0.01 0.01,-0.03 0.01,-0.03z"/>
  </g>
 </g>
</svg>
