<?xml version="1.0" encoding="UTF-8"?>
<!DOCTYPE svg PUBLIC "-//W3C//DTD SVG 1.1//EN" "http://www.w3.org/Graphics/SVG/1.1/DTD/svg11.dtd">
<!-- Creator: CorelDRAW 2018 (64 Bit Versión de evaluación) -->
<svg xmlns="http://www.w3.org/2000/svg" xml:space="preserve" width="0.208587in" height="0.208587in" version="1.1" style="shape-rendering:geometricPrecision; text-rendering:geometricPrecision; image-rendering:optimizeQuality; fill-rule:evenodd; clip-rule:evenodd"
viewBox="0 0 1.58 1.58"
 xmlns:xlink="http://www.w3.org/1999/xlink">
 <defs>
  <style type="text/css">
   <![CDATA[
    .fil1 {fill:#FEFEFE;fill-rule:nonzero}
    .fil4 {fill:#F6E9E4;fill-rule:nonzero}
    .fil5 {fill:#F8DE5E;fill-rule:nonzero}
    .fil2 {fill:#B76F39;fill-rule:nonzero}
    .fil3 {fill:#963233;fill-rule:nonzero}
    .fil0 {fill:#6F85A5;fill-rule:nonzero}
    .fil6 {fill:#332F2D;fill-rule:nonzero}
    .fil7 {fill:#39383D;fill-rule:nonzero}
   ]]>
  </style>
 </defs>
 <g id="Capa_x0020_1">
  <metadata id="CorelCorpID_0Corel-Layer"/>
  <g id="_1696522896576">
   <path class="fil0" d="M1.58 0.79c0,-0.44 -0.35,-0.79 -0.79,-0.79 -0.44,0 -0.79,0.35 -0.79,0.79 0,0.44 0.35,0.79 0.79,0.79 0.44,0 0.79,-0.35 0.79,-0.79z"/>
   <path class="fil1" d="M1.26 1.16c-0.01,-0.03 -0.02,-0.07 -0.04,-0.1 -0.02,-0.03 -0.04,-0.07 -0.05,-0.11 -0.02,-0.06 -0.02,-0.13 -0.03,-0.16 0,-0 0,-0 0,-0 0,-0.01 -0,-0.01 -0,-0.02 -0,-0.01 0,-0.01 0,-0.01l-0 0c-0.02,-0.18 -0.16,-0.32 -0.35,-0.32l-0 0c-0.18,0 -0.33,0.14 -0.35,0.32l-0 -0c0,0 0,0 0,0 -0,0.01 -0,0.02 -0,0.03 0,0 0,0.01 0,0.01 -0,0.04 -0.01,0.09 -0.02,0.15 -0.01,0.04 -0.03,0.08 -0.05,0.12 -0.02,0.03 -0.03,0.06 -0.04,0.09 -0.03,0.1 -0.04,0.21 -0.04,0.25 0.14,0.11 0.31,0.18 0.5,0.18 0.19,0 0.37,-0.07 0.5,-0.18 -0,-0.04 -0.01,-0.15 -0.04,-0.24z"/>
   <polygon class="fil2" points="1.32,1.28 1.32,1.28 1.32,1.28 1.32,1.28 "/>
   <path class="fil3" d="M0.84 0.06c0.02,0.05 0.03,0.09 0.04,0.12 0,0.02 0.01,0.03 0.01,0.05 0,0.02 0.01,0.04 0.01,0.07 0,0.05 -0.01,0.1 -0.03,0.15 -0.02,0.05 -0.05,0.09 -0.1,0.12 -0.01,-0.05 -0.01,-0.09 -0.01,-0.13 -0,-0.04 -0.01,-0.07 -0.01,-0.11 -0,-0.02 -0,-0.04 -0,-0.06 0,-0.02 0,-0.06 0.01,-0.08 0.02,-0.05 0.04,-0.09 0.08,-0.13z"/>
   <path class="fil4" d="M0.94 0.63c-0.06,0 -0.12,0.04 -0.14,0.09l-0 -0c-0.02,-0.05 -0.08,-0.09 -0.14,-0.09 -0.09,0 -0.15,0.07 -0.15,0.15 0,0.08 0.07,0.15 0.15,0.15 0.06,0 0.12,0.01 0.14,-0.04l0 -0c0.02,0.05 0.08,0.04 0.14,0.04 0.09,0 0.16,-0.07 0.16,-0.15 0,-0.08 -0.07,-0.15 -0.16,-0.15z"/>
   <path class="fil3" d="M0.73 0.91c0,0 -0.22,0.57 -0.05,0.61 0.18,0.04 0.09,-0.47 0.09,-0.5l-0.04 -0.11z"/>
   <path class="fil3" d="M0.86 0.91c0,0 0.22,0.57 0.05,0.61 -0.18,0.04 -0.09,-0.47 -0.09,-0.5l0.04 -0.11z"/>
   <path class="fil5" d="M0.86 0.91l-0.04 -0.02c-0.01,-0 -0.02,-0.01 -0.03,-0.01 -0.01,0 -0.02,0 -0.03,0.01l-0.04 0.02c-0.02,0.01 -0.02,0.02 -0.01,0.04l0.06 0.08c0,0.01 0.01,0.01 0.02,0.01 0.01,0 0.01,-0 0.02,-0.01l0.06 -0.08c0.01,-0.01 0,-0.03 -0.01,-0.04z"/>
   <path class="fil1" d="M0.61 0.75c0,0 0.12,-0.03 0.11,0.08 0,0 -0.11,0.04 -0.11,-0.08z"/>
   <path class="fil6" d="M0.69 0.79c0,0.02 -0.01,0.03 -0.03,0.03 -0.02,0 -0.03,-0.01 -0.03,-0.03 0,-0.02 0.01,-0.03 0.03,-0.03 0.02,0 0.03,0.01 0.03,0.03z"/>
   <path class="fil1" d="M0.68 0.78c0,0 -0,0.01 -0.01,0.01 -0,0 -0.01,-0 -0.01,-0.01 0,-0 0,-0.01 0.01,-0.01 0,0 0.01,0 0.01,0.01z"/>
   <path class="fil1" d="M1 0.75c0,0 -0.12,-0.03 -0.11,0.08 0,0 0.11,0.04 0.11,-0.08z"/>
   <path class="fil6" d="M0.91 0.79c0,0.02 0.01,0.03 0.03,0.03 0.02,0 0.03,-0.01 0.03,-0.03 0,-0.02 -0.01,-0.03 -0.03,-0.03 -0.02,0 -0.03,0.01 -0.03,0.03z"/>
   <path class="fil1" d="M0.92 0.79c0,0 0,0.01 0.01,0.01 0,0 0.01,-0 0.01,-0.01 0,-0 -0,-0.01 -0.01,-0.01 -0,0 -0.01,0 -0.01,0.01z"/>
   <path class="fil7" d="M0.73 0.84c-0.02,0.05 -0.09,0.05 -0.1,0.05 -0,0 -0.01,-0 -0.01,-0 -0.06,-0 -0.11,-0.04 -0.14,-0.13 -0.01,-0.02 -0.01,-0.03 -0,-0.04 0.01,-0.01 0.03,-0.02 0.06,-0.02 0.03,0 0.05,0 0.08,0.01 0.01,0 0.01,0 0.02,0 0.06,0.01 0.1,0.02 0.11,0.04 0.01,0.02 0,0.05 -0.01,0.09l-0 0zm0.12 0l-0 -0c-0.01,-0.02 -0.01,-0.04 -0.02,-0.06l0 -0 -0 -0c-0,-0.01 -0,-0.02 0.01,-0.03 0.01,-0.02 0.05,-0.03 0.11,-0.04 0.01,-0 0.01,-0 0.02,-0 0.03,-0 0.05,-0.01 0.08,-0.01 0.03,0 0.05,0.01 0.06,0.02 0.01,0.01 0,0.02 -0,0.04 -0.04,0.09 -0.08,0.13 -0.14,0.13 -0,0 -0.01,0 -0.01,0 -0.01,0 -0.08,-0 -0.1,-0.05zm0.28 -0.13c-0,-0.01 -0.01,-0.01 -0.01,-0.01 -0.01,-0.01 -0.04,-0.01 -0.07,-0.01 -0.03,0 -0.06,0 -0.08,0.01 -0.01,0 -0.01,0 -0.02,0 -0.07,0.01 -0.11,0.02 -0.13,0.05 -0.01,0.01 -0.01,0.02 -0.01,0.03 -0.02,-0.01 -0.03,-0 -0.04,0 -0,-0.01 -0,-0.02 -0.01,-0.03 -0.02,-0.03 -0.06,-0.04 -0.13,-0.05 -0.01,-0 -0.01,-0 -0.02,-0 -0.03,-0 -0.06,-0.01 -0.08,-0.01 -0.01,0 -0.01,0 -0.02,0 -0.03,0 -0.05,0.01 -0.06,0.03 -0.01,0.01 -0.01,0.02 -0.01,0.03 0,0.01 0,0.02 0.01,0.03 0.04,0.09 0.09,0.14 0.16,0.14 0,0 0.01,0 0.01,0 0.05,0 0.11,-0.02 0.12,-0.06l0 -0c0.01,-0.02 0.01,-0.03 0.02,-0.05 0,-0 0.01,-0 0.01,-0.01 0.01,-0 0.02,-0.01 0.03,0 0,0 0,0 0.01,0 0,0.02 0.01,0.03 0.02,0.05l0 0c0.02,0.05 0.07,0.06 0.12,0.06 0,0 0.01,-0 0.01,-0 0.07,-0 0.12,-0.05 0.16,-0.14 0,-0.01 0.01,-0.02 0.01,-0.03 0,-0.01 -0,-0.02 -0.01,-0.03z"/>
  </g>
 </g>
</svg>
