<?xml version="1.0" encoding="UTF-8"?>
<!DOCTYPE svg PUBLIC "-//W3C//DTD SVG 1.1//EN" "http://www.w3.org/Graphics/SVG/1.1/DTD/svg11.dtd">
<!-- Creator: CorelDRAW 2018 (64 Bit Versión de evaluación) -->
<svg xmlns="http://www.w3.org/2000/svg" xml:space="preserve" width="0.216098in" height="0.27313in" version="1.1" style="shape-rendering:geometricPrecision; text-rendering:geometricPrecision; image-rendering:optimizeQuality; fill-rule:evenodd; clip-rule:evenodd"
viewBox="0 0 1.17 1.48"
 xmlns:xlink="http://www.w3.org/1999/xlink">
 <defs>
  <style type="text/css">
   <![CDATA[
    .str0 {stroke:white;stroke-width:0.04;stroke-miterlimit:2.61313}
    .fil0 {fill:black}
   ]]>
  </style>
 </defs>
 <g id="Capa_x0020_1">
  <metadata id="CorelCorpID_0Corel-Layer"/>
  <g id="_1697180723792">
   <g>
    <path class="fil0 str0" d="M1.06 1.24c-0.01,0.02 -0.02,0.02 -0.03,0.04 -0.01,0.01 -0.02,0.03 -0.03,0.03 0,-0.04 0,-0.04 -0,-0.08 0.02,-0 0.03,-0.01 0.05,-0.01 0.02,-0.01 0.03,-0.01 0.04,-0.02 -0.01,0.01 -0.02,0.02 -0.03,0.04zm-0.39 -1.19c0.01,0.01 -0,0 0.01,0.01 0.01,0 0.01,0 0.01,0l0.39 -0.02c0.03,0.31 0.05,0.68 0.06,1 0,0.06 0.02,0.11 -0.02,0.14 -0.03,0.03 -0.07,0.05 -0.12,0.06l-0.01 0.02c-0.04,0 -0.67,0.04 -0.71,0.05l-0.01 0 -0.01 0c-0,-0 0,0 0,0l0.73 -0.05c0.01,0.05 -0,0.08 -0.02,0.11 -0.03,0.03 -0.05,0.03 -0.1,0.03 -0.08,0.01 -0.16,0.01 -0.24,0.02 -0.16,0.01 -0.32,0.02 -0.48,0.03 -0,-0.03 0.01,-0.03 -0.01,-0.05 -0,-0 -0,-0 -0.01,-0 -0.02,-0.02 0,0.02 -0,-0.01 0.01,-0.02 0.03,-0.03 0.02,-0.05 -0,-0.01 -0.02,-0.04 -0.02,-0.06 -0,-0.06 0.01,-0.01 -0.01,-0.08 -0.01,-0.02 0,0.02 -0,-0.01 -0,-0.02 -0,-0 -0.01,-0.02l0.01 -0.02 -0.02 -0.04c-0.01,-0.02 -0.01,-0.01 -0.02,-0.03 0.01,-0.02 -0,0 0,-0.01 0,-0 0,-0 0,-0l0.01 -0.02c0.02,-0.05 0.03,-0.03 0.01,-0.07 0.01,-0.01 0.02,-0.02 0.02,-0.04 0,-0.03 -0.01,-0.03 -0.02,-0.04 -0,-0.01 -0,-0.02 -0,-0.03 -0,-0.01 -0.01,-0.01 -0.01,-0.02 -0,-0.02 0.01,-0.01 0,-0.04 -0,-0 -0,-0 -0,-0 -0,-0 -0,-0 -0,-0 0.03,-0.02 0.02,-0.02 0.02,-0.04 0,-0.03 0.01,-0.02 -0.01,-0.05l0.01 -0.01 -0 -0.01c-0,0.02 0,0 -0.01,0.01 -0,0 -0.01,-0.01 -0.01,0.01 0,0 0,0.01 0,0.01 0.01,0.01 0,0.01 0,0.03 -0,0 -0,0.02 -0,0.02 -0.01,0.02 -0,0 -0.01,0.01 -0.01,0.01 -0.01,0.01 -0.02,0.02 0.01,0.01 0.01,0.01 0.01,0.02l-0.01 0.02 -0 -0 0.01 0.02c0,0 0,0 0,0l0 0.04c0.01,0 0.02,0.01 0.02,0.02 0,0.01 -0,0.01 -0.01,0.03 0,0.01 0,0 -0,0.01 -0,0 -0,0.01 -0,0.01 -0,-0 -0,0 -0,0 0.01,0.03 0.01,0.02 0,0.04l-0.01 0.01c-0,0.02 -0,0.02 -0.02,0.03 0.01,0.03 0.01,0.01 -0,0.03 -0,0.01 -0.01,0.03 -0.01,0.04 0.03,0.01 0.01,0.01 0.02,0.04 0,0.02 0,-0.01 0.01,0.02l0.02 0.01c0,0.02 -0,0 0,0.02 0.01,0.01 0,0.01 0.01,0.03 0.01,0.05 -0,0.02 0.01,0.08 0,0.01 0,0.01 0,0.02 0,0.02 -0,-0 0,0.01 0,0.01 0.01,0.01 0,0.02l-0.01 0.02c-0,-0 -0,0 -0,0l-0 0.01 -0 0.02 0.02 0.01c-0.01,0.02 -0.01,0.02 -0.01,0.04 0.03,0.01 0.74,-0.04 0.8,-0.05 0.01,-0.01 0.01,-0.01 0.03,-0.01l0.16 -0.21c0.04,-0.06 0.02,-0.12 0.01,-0.2 -0,-0.06 -0.01,-0.13 -0.01,-0.19 -0.01,-0.13 -0.01,-0.25 -0.02,-0.38 -0.01,-0.06 -0.02,-0.35 -0.03,-0.38 -0.05,-0.01 -0.32,0.03 -0.41,0.02z"/>
    <path class="fil0 str0" d="M0.05 0.21l0.01 0.03 -0.02 0.03c-0.01,0 -0,0 -0.01,0.01 0,0 0,0 0,0l0.01 0.01 -0 0.02 0 0.04c0.01,0.01 0.02,0.01 0.02,0.02 0.02,0.04 0.01,0.03 0,0.05l0 0.06c-0,0.04 -0.01,0.04 -0.02,0.06l0.01 0.01 -0.01 0.03 0 0.01 0 0.01c0.04,0.01 0.03,-0.01 0.04,0.02 0.01,0.02 0.01,0.01 0.01,0.05 0.01,0 -0.01,0.01 0.01,0 -0.01,-0.02 -0,-0.02 -0.01,-0.04 -0.01,-0.02 -0.01,-0.02 -0.01,-0.04l-0.04 -0.01c0.01,-0.03 0,0 0.01,-0.04 0,-0.03 0.03,-0.05 0.02,-0.11 -0.01,-0.03 0.01,-0 0,-0.03 0,-0 -0.01,-0.03 -0.01,-0.03 -0.01,-0.02 -0,-0.02 -0.02,-0.02 0.01,-0.03 -0,-0.03 -0,-0.05 0,-0.02 0.01,-0.02 -0.01,-0.03 0.05,-0.05 0.02,-0.05 0.01,-0.09 -0.01,-0.02 -0,-0.03 -0.01,-0.05 0.02,-0.01 0.01,-0.01 0.03,-0.03l0.45 -0.03c0.02,-0.01 0.03,-0.01 0.05,-0 0.01,-0 0.01,0.01 0.01,-0.01l-0.52 0.03c-0,0.02 -0.01,0.03 -0.02,0.04 0,0.02 0,0.02 0,0.04 0,0.01 0.01,0.02 0.01,0.04z"/>
   </g>
   <g>
    <path class="fil0 str0" d="M0.19 0.21l0.01 0.01c0.01,0.01 0.01,0 0.01,0.03 0,0.01 0,0.03 0,0.04 0,0.12 0.02,0.27 0.02,0.39 0,0.02 0.01,0.14 0.01,0.16l-0 -0.08c0.06,0 0.78,-0.05 0.8,-0.06 -0.02,-0.01 -0.71,0.04 -0.8,0.05l-0 -0.08 0.8 -0.05c-0,-0.01 -0.16,0 -0.19,0l-0.4 0.03c-0.06,0 -0.14,0.01 -0.21,0.01l-0 -0.08c0.18,-0 0.41,-0.03 0.6,-0.04 0.03,-0 0.07,-0 0.1,-0.01l-0.7 0.04 -0.01 -0.08c0.24,-0.01 0.52,-0.04 0.75,-0.05 0.02,-0 0.03,0 0.05,-0.01l-0.8 0.05 -0 -0.08c0.18,-0 0.41,-0.03 0.6,-0.04 0.02,-0 0.18,-0 0.2,-0.02 -0.04,-0.01 -0.68,0.05 -0.8,0.05l-0 -0.08c0.04,-0.01 0.15,-0.01 0.2,-0.02 0.09,-0.01 0.58,-0.03 0.6,-0.04 -0,-0 -0,-0 -0,-0 -0,0 -0,-0 -0,-0 -0.01,-0 -0,-0 -0.01,-0l-0.58 0.04c-0.06,0 -0.14,0.01 -0.2,0.01l-0.01 -0.08c0.11,-0.01 0.76,-0.04 0.79,-0.06 -0.01,-0.01 -0.03,-0 -0.05,-0l-0.76 0.05z"/>
    <path class="fil0 str0" d="M0.27 1.29l0.01 -0 -0.01 -0.08c0.23,-0.01 0.51,-0.03 0.75,-0.05l0.04 -0.01c-0.03,-0.01 -0.69,0.05 -0.8,0.05l-0.01 -0.08c0.06,0 0.15,-0.01 0.21,-0.01 0.06,-0 0.58,-0.03 0.6,-0.05 -0.05,-0.01 -0.67,0.05 -0.8,0.05l-0.01 -0.08c0.13,-0 0.27,-0.02 0.4,-0.03 0.07,-0 0.13,-0.01 0.2,-0.01 0.01,-0 0.19,-0.01 0.19,-0.02 0,-0 0,-0 0,-0l-0.79 0.05c-0,-0 -0,-0 -0.01,-0.01 -0,-0 -0,-0.01 -0,-0.01l-0 -0.06c0.07,-0 0.78,-0.05 0.8,-0.06 -0.03,-0.01 -0.7,0.04 -0.8,0.05l-0 -0.08c0.19,-0 0.41,-0.03 0.6,-0.04 0.02,-0 0.17,-0.01 0.19,-0.02l-0.79 0.05 0.03 0.45z"/>
    <path class="fil0 str0" d="M0.32 1.45c0.01,0.01 0.26,-0.02 0.3,-0.02 0.07,-0 0.26,-0.01 0.3,-0.03 0.01,-0.01 0.01,-0.01 0.02,-0.02 -0.07,0.01 -0.78,0.06 -0.8,0.05 -0,-0.02 -0,-0.02 0.01,-0.04l-0.02 -0.01 0 -0.02 -0.01 0c-0.01,0.01 -0.01,0.02 -0.01,0.03l0.02 0.01 -0 0.04 0.2 -0.01z"/>
    <path class="fil0 str0" d="M0.13 1.36c0,-0 0,-0 0,-0l0.01 -0.02c0.01,-0.01 0,-0.01 -0,-0.02 -0,-0.01 0,0.01 -0,-0.01 -0,-0.01 -0,-0.01 -0,-0.02 -0.01,-0.06 -0,-0.03 -0.01,-0.08 -0,-0.02 -0,-0.01 -0.01,-0.03 -0.01,-0.02 -0,-0 -0,-0.02l-0.02 -0.01c-0.01,0.02 -0.01,0.01 -0.02,0.02 0.01,0.01 0,0 0.01,0.01 0,0 0,0 0,0 0.03,0.05 0.01,0.08 0.02,0.11 0,0.01 0.01,0.04 0.01,0.05z"/>
    <path class="fil0 str0" d="M0.11 0.7c0.01,-0.01 0.01,0.01 0.01,-0.01l0 0.01c0.01,-0.01 0.01,-0.01 0,-0.02 -0.03,0.01 -0,0 -0.01,-0 -0,-0.04 -0.01,-0.02 -0.01,-0.05 -0.01,-0.03 -0.01,-0.02 -0.04,-0.02l-0 -0.01c-0.01,0.01 -0.01,0.01 -0.01,0.03l0.04 0c0.02,0.03 0.02,0.05 0.02,0.07z"/>
    <path class="fil0 str0" d="M0.11 0.94c0.01,-0.02 0.01,-0.02 0.01,-0.03 -0,-0.01 -0.01,-0.02 -0.02,-0.02l-0 -0.04c-0,-0 -0,-0 -0,-0l-0.01 -0.02c-0,0.02 -0.01,0.02 -0,0.03l0.03 0.08z"/>
    <path class="fil0 str0" d="M0.07 0.42c0.01,-0.01 0.02,-0.01 -0,-0.05 -0.01,-0.02 -0.01,-0.01 -0.02,-0.02l0 0.03 0.02 0.01 0.01 0.03z"/>
    <path class="fil0 str0" d="M0.1 1.01l0.01 -0.01c0.01,-0.02 0,-0.01 -0,-0.04 -0.01,0.01 -0,0 -0.01,0.01 -0,0 -0,0.01 -0,0.01 -0,0.01 -0,0.02 0,0.03z"/>
   </g>
   <path class="fil0 str0" d="M0.58 0.05c0,0.02 0,0 -0.01,0.01l-0 0.01c-0,0.04 0.02,0.04 0.04,0.06l0.01 -0c0.02,-0 0.02,-0.01 0.03,-0.02 0,-0.02 0.01,-0 -0,-0.01 -0.04,0.02 -0.06,-0.01 -0.04,-0.05 0.02,-0 0.02,-0 0.03,-0.01 -0.03,-0.01 -0.04,0 -0.06,0.02z"/>
   <path class="fil0 str0" d="M0.66 0.11c0.01,-0.01 0.01,-0 0.02,-0.02 0,-0.01 0,-0.02 0,-0.03l0.02 -0c-0.01,0 -0,0 -0.01,-0 -0.01,-0 -0,-0 -0.01,-0.01l-0.02 -0.01c-0.01,0.01 -0.01,0.01 -0.03,0.01 -0.02,0.04 -0,0.07 0.04,0.05 0.01,0.01 0,-0.01 0,0.01z"/>
  </g>
 </g>
</svg>
